<svg width="12" height="14" viewBox="0 0 12 14" fill="none" xmlns="http://www.w3.org/2000/svg">
<path d="M2.85188 3.87923V2.79957C2.85188 1.25781 4.04629 0 5.52994 0C7.01358 0 8.208 1.25781 8.208 2.79957V3.87923H10.0591C10.1439 3.87929 10.2255 3.91174 10.2875 3.97004C10.3495 4.02834 10.3873 4.10815 10.3933 4.19341L11.0296 13.6405C11.0352 13.7297 11.0056 13.8176 10.9472 13.8849C10.8888 13.9523 10.8064 13.9936 10.7179 14H0.364495C0.275854 14 0.190843 13.9645 0.128165 13.9013C0.0654859 13.8382 0.0302734 13.7525 0.0302734 13.6631V13.6405L0.66658 4.19341C0.672282 4.10796 0.709963 4.02788 0.772006 3.96935C0.834049 3.91083 0.915826 3.87823 1.0008 3.87815L2.85188 3.87923ZM3.85669 3.87923H7.20426V2.79957C7.20426 1.80736 6.45441 1.01164 5.52994 1.01164C4.60547 1.01164 3.85669 1.80736 3.85669 2.79957V3.87923ZM1.08114 12.9894H9.97873L9.43455 4.89196H1.6264L1.08114 12.9894Z" fill="white"/>
</svg>
