<svg width="12" height="18" viewBox="0 0 12 18" fill="none" xmlns="http://www.w3.org/2000/svg">
<path d="M6 17.4466L5.67857 17.0537C5.46429 16.768 0 10.3751 0 6.55371C0 3.23228 2.71429 0.553711 6 0.553711C9.28571 0.553711 12 3.268 12 6.55371C12 10.3751 6.53571 16.8037 6.32143 17.0537L6 17.4466ZM6 1.37514C3.14286 1.37514 0.857143 3.69657 0.857143 6.518C0.857143 9.518 4.82143 14.6251 6 16.0894C7.17857 14.6251 11.1429 9.55371 11.1429 6.518C11.1429 3.69657 8.85714 1.37514 6 1.37514Z" fill="black"/>
<path d="M6.00007 8.84096C4.75007 8.84096 3.71436 7.80525 3.71436 6.55525C3.71436 5.30525 4.75007 4.26953 6.00007 4.26953C7.25007 4.26953 8.28578 5.30525 8.28578 6.55525C8.28578 7.80525 7.25007 8.84096 6.00007 8.84096ZM6.00007 5.12667C5.21436 5.12667 4.5715 5.76953 4.5715 6.55525C4.5715 7.34096 5.21436 7.98382 6.00007 7.98382C6.78578 7.98382 7.42864 7.34096 7.42864 6.55525C7.42864 5.76953 6.78578 5.12667 6.00007 5.12667Z" fill="black"/>
</svg>
