<svg width="80" height="24" viewBox="0 0 80 24" fill="none" xmlns="http://www.w3.org/2000/svg">
<path d="M72.2779 6.30415L73.7819 1.05615L65.9419 1.08815L64.4059 6.30415H72.2779ZM79.0299 17.5362L74.6459 23.1042H60.0859L63.9899 8.35215H71.8299L69.2059 17.5362H79.0299Z" fill="#F5C401"/>
<path d="M62.2311 6.36793H37.6231L40.9191 1.02393H58.9991C59.4898 1.02393 59.9911 1.19459 60.5031 1.53593C61.0151 1.87726 61.3884 2.28259 61.6231 2.75193C62.0284 3.49859 62.2311 4.70393 62.2311 6.36793ZM61.6551 8.47993C61.5698 9.01326 61.3671 9.63193 61.0471 10.3359C59.7884 12.9599 56.7804 14.2719 52.0231 14.2719H44.6631L42.1991 23.0719H34.8711L38.8711 8.51193L61.6551 8.47993Z" fill="#F5C401"/>
<path d="M34.9907 1.02393L33.5187 6.39993H25.8067L27.3427 1.02393H34.9907ZM33.0387 8.47993L29.0387 23.0719H21.2627L25.3267 8.47993H33.0387Z" fill="#F5C401"/>
<path d="M23.744 6.4H2.656C3.08267 4.94933 3.808 3.72266 4.832 2.72C6.09067 1.504 7.392 0.895996 8.736 0.895996H19.616C22.368 0.895996 23.744 2.35733 23.744 5.27999C23.744 6.00533 23.744 6.37866 23.744 6.4ZM23.296 8.448L23.168 8.96C22.8267 10.0693 22.24 12.096 21.408 15.04C20.8747 16.896 20.0533 18.4533 18.944 19.712C16.9387 21.9733 14.2507 23.104 10.88 23.104H7.072C5.024 23.104 3.40267 22.72 2.208 21.952C0.736 21.0347 0 19.616 0 17.696C0 16.672 0.16 15.584 0.48 14.432L2.08 8.512H9.536L7.328 16.288C7.24267 16.6507 7.2 16.928 7.2 17.12C7.2 17.5467 7.392 17.8133 7.776 17.92H12.416C12.992 17.7707 13.4187 17.2267 13.696 16.288L16 8.48L23.296 8.448Z" fill="#F5C401"/>
</svg>
